<?xml version="1.0" standalone="no"?>
<!DOCTYPE svg PUBLIC "-//W3C//DTD SVG 1.1//EN" "http://www.w3.org/Graphics/SVG/1.1/DTD/svg11.dtd" >
<svg xmlns="http://www.w3.org/2000/svg">
<metadata></metadata>
<defs>
<font id="pixelmplus12regular" horiz-adv-x="1024" >
<font-face units-per-em="2048" ascent="1638" descent="-410" />
<missing-glyph horiz-adv-x="500" />
<glyph horiz-adv-x="2048" />
<glyph horiz-adv-x="2048" />
<glyph unicode="&#xd;" d="M342 -410v1024h682v-170h-512v-854h-170z" />
<glyph d="M0 614v170h170v172h172v170h170v-170h170v-172h172v-170h-172v-170h-170v-172h-170v172h-172v170h-170z" />
<glyph d="M0 -68v170h170v-170h172v-172h170v-170h-170v170h-172v172h-170zM0 -240h170v-170h-170v170zM0 272v172h170v-172h172v-170h170v-170h170v-172h172v-170h-172v170h-170v172h-170v170h-172v170h-170zM0 614v170h170v-170h172v-170h170v-172h170v-170h172v-170h170v-172 h-170v172h-172v170h-170v170h-170v172h-172v170h-170zM0 956v170h170v-170h172v-172h170v-170h170v-170h172v-172h170v-170h-170v170h-172v172h-170v170h-170v170h-172v172h-170zM0 1296v172h170v-172h172v-170h170v-170h170v-172h172v-170h170v-170h-170v170h-172v170h-170 v172h-170v170h-172v170h-170zM170 1468v170h172v-170h-172zM342 1296v172h170v-172h-170zM512 1126v170h170v-170h-170zM512 1468v170h170v-170h-170zM682 956v170h172v-170h-172zM682 1296v172h172v-172h-172zM854 784v172h170v-172h-170zM854 1126v170h170v-170h-170z M854 1468v170h170v-170h-170z" />
<glyph d="M0 444v170h854v-170h-342v-684h-170v684h-342zM0 784v854h170v-342h512v342h172v-854h-172v342h-512v-342h-170z" />
<glyph d="M0 -240v854h854v-170h-684v-172h684v-170h-684v-342h-170zM0 784v854h854v-170h-684v-172h684v-170h-684v-342h-170z" />
<glyph d="M0 -240v854h854v-512h-172v-170h-170v170h-342v-342h-170zM0 784v854h854v-342h-172v172h-512v-512h512v170h172v-342h-854zM170 272h512v172h-512v-172zM682 -68h172v-172h-172v172z" />
<glyph d="M0 -240v854h854v-170h-684v-172h684v-170h-684v-342h-170zM0 784v854h170v-682h684v-172h-854z" />
<glyph d="M0 1126v342h170v-342h-170zM170 956v170h342v-170h-342zM170 1468v170h342v-170h-342zM512 1126v342h170v-342h-170z" />
<glyph d="M0 -68v170h854v-170h-854zM0 784v172h342v340h170v-340h342v-172h-342v-340h-170v340h-342z" />
<glyph unicode="&#x9;" d="M0 -240v854h170v-682h684v-172h-854zM0 784v854h170v-170h172v-172h170v-170h-170v170h-172v-512h-170zM512 956v170h170v512h172v-854h-172v172h-170z" />
<glyph unicode="&#xa;" d="M0 444v170h854v-170h-342v-684h-170v684h-342zM0 784v854h170v-682h342v-172h-512zM512 956v170h170v-170h-170zM682 1126v512h172v-512h-172z" />
<glyph d="M0 444v170h342v1194h170v-1364h-512z" />
<glyph d="M0 444v170h512v-1024h-170v854h-342z" />
<glyph d="M342 444v1364h170v-1194h512v-170h-682z" />
<glyph d="M0 444v170h342v1194h170v-1194h512v-170h-512v-854h-170v854h-342z" />
<glyph d="M0 1126v170h1024v-170h-1024z" />
<glyph d="M0 784v172h1024v-172h-1024z" />
<glyph d="M0 444v170h1024v-170h-1024z" />
<glyph d="M0 102v170h1024v-170h-1024z" />
<glyph d="M0 -68h1024v-172h-1024v172z" />
<glyph d="M342 -410v2218h170v-1194h512v-170h-512v-854h-170z" />
<glyph d="M0 444v170h342v1194h170v-2218h-170v854h-342z" />
<glyph d="M0 444v170h342v1194h170v-1194h512v-170h-1024z" />
<glyph d="M0 444v170h1024v-170h-512v-854h-170v854h-342z" />
<glyph d="M342 -410v2218h170v-2218h-170z" />
<glyph d="M0 -68v170h854v-170h-854zM0 784v172h170v-172h172v-170h170v-170h170v-172h-170v172h-170v170h-172v170h-170zM170 956v170h172v-170h-172zM342 1126v170h170v-170h-170zM512 1296v172h170v-172h-170z" />
<glyph d="M0 -68v170h854v-170h-854zM170 272v172h172v-172h-172zM170 1296v172h172v-172h170v-170h170v-170h172v-172h-172v-170h-170v-170h-170v170h170v170h170v172h-170v170h-170v170h-172z" />
<glyph d="M0 -68v340h170v512h-170v172h854v-172h-172v-852h-170v852h-170v-512h-172v-340h-170z" />
<glyph d="M0 444v170h342v170h-342v172h512v340h170v-340h172v-172h-342v-170h342v-170h-512v-342h-172v342h-170z" />
<glyph d="M0 -68v170h170v-170h-170zM0 614v170h170v512h172v-512h340v-170h-340v-342h170v-170h342v-170h-342v170h-342v512h-170zM342 1296v172h340v-172h-340zM682 1126v170h172v-170h-172z" />
<glyph d="M170 614v170h172v172h170v-172h170v-170h-170v-170h-170v170h-172z" />
<glyph unicode=" " />
<glyph unicode="!" d="M342 -68v170h170v-170h-170zM342 444v1024h170v-1024h-170z" />
<glyph unicode="&#x22;" d="M170 956v682h172v-682h-172zM512 956v682h170v-682h-170z" />
<glyph unicode="#" d="M0 272v172h170v512h-170v170h170v342h172v-342h170v342h170v-342h172v-170h-172v-512h172v-172h-172v-340h-170v340h-170v-340h-172v340h-170zM342 444h170v512h-170v-512z" />
<glyph unicode="$" d="M0 102v170h342v342h-172v170h172v342h-172v-342h-170v342h170v170h172v172h170v-172h342v-170h-342v-342h170v-170h172v-342h-172v-170h-170v-170h-170v170h-342zM512 272h170v342h-170v-342z" />
<glyph unicode="%" d="M0 272v172h170v-172h-170zM0 1126v170h170v-170h172v-170h-172v170h-170zM170 444v170h172v-170h-172zM170 1296v172h172v-172h-172zM342 102v170h170v-170h170v-170h-170v170h-170zM342 614v170h170v-170h-170zM342 1126v170h170v-170h-170zM512 272v172h170v-172h-170z M512 784v172h170v-172h-170zM682 102v170h172v-170h-172zM682 956v170h172v-170h-172z" />
<glyph unicode="&#x26;" d="M0 102v512h170v-512h-170zM0 956v340h170v-340h-170zM170 -68v170h342v-170h-342zM170 614v342h342v-172h-170v-170h-172zM170 1296v172h342v-172h-342zM342 444v170h170v-170h-170zM512 102v342h170v-342h-170zM512 956v340h170v-340h-170zM682 -68v170h172v-170h-172z M682 444v340h172v-340h-172z" />
<glyph unicode="'" d="M342 956v682h170v-682h-170z" />
<glyph unicode="(" d="M170 272v854h172v-854h-172zM342 -68v340h170v-340h-170zM342 1126v342h170v-342h-170zM512 -68h170v-172h-170v172zM512 1468v170h170v-170h-170z" />
<glyph unicode=")" d="M170 -68h172v-172h-172v172zM170 1468v170h172v-170h170v-342h170v-854h-170v-340h-170v340h170v854h-170v342h-172z" />
<glyph unicode="*" d="M0 272v172h170v-172h-170zM0 956v170h170v-170h172v340h170v-340h170v-172h-170v-170h170v-170h172v-172h-172v172h-170v-342h-170v342h-172v170h172v170h-172v172h-170zM682 956v170h172v-170h-172z" />
<glyph unicode="+" d="M0 614v170h342v342h170v-342h342v-170h-342v-342h-170v342h-342z" />
<glyph unicode="," d="M170 -68h172v-172h-172v172zM170 102v170h172v172h170v-172h170v-170h-170v-170h-170v170h-172z" />
<glyph unicode="-" d="M0 614v170h854v-170h-854z" />
<glyph unicode="." d="M170 102v170h172v172h170v-172h170v-170h-170v-170h-170v170h-172z" />
<glyph unicode="/" d="M0 102h170v-342h-170v342zM170 102v342h172v-342h-172zM342 444v340h170v-340h-170zM512 784v342h170v-342h-170zM682 1126v342h172v-342h-172z" />
<glyph unicode="0" d="M0 102v1194h170v-682h172v170h170v172h170v340h172v-1194h-172v682h-170v-170h-170v-170h-172v-342h-170zM170 -68v170h512v-170h-512zM170 1296v172h512v-172h-512z" />
<glyph unicode="1" d="M0 956v170h170v-170h-170zM170 1126v170h172v172h170v-1536h-170v1194h-172z" />
<glyph unicode="2" d="M0 -68v340h170v-170h684v-170h-854zM0 956v340h170v-340h-170zM170 272v172h172v-172h-172zM170 1296v172h512v-172h-512zM342 444v170h170v-170h-170zM512 614v170h170v-170h-170zM682 784v512h172v-512h-172z" />
<glyph unicode="3" d="M0 102v170h170v-170h512v-170h-512v170h-170zM0 1296v172h854v-342h-172v-170h-170v170h170v170h-682zM170 614v170h172v172h170v-172h170v-170h172v-512h-172v512h-512z" />
<glyph unicode="4" d="M0 272v512h170v-340h342v682h-170v-342h-172v342h172v342h340v-1024h172v-172h-172v-340h-170v340h-512z" />
<glyph unicode="5" d="M0 102v342h170v-342h-170zM0 784v684h854v-172h-684v-340h512v-172h-682zM170 -68v170h512v-170h-512zM682 102v682h172v-682h-172z" />
<glyph unicode="6" d="M0 102v1024h170v-170h512v-172h-512v-682h-170zM170 -68v170h512v-170h-512zM170 1126v170h172v-170h-172zM342 1296v172h340v-172h-340zM682 102v682h172v-682h-172z" />
<glyph unicode="7" d="M0 1296v172h854v-342h-172v-342h-170v-340h-170v-512h-172v512h172v340h170v342h170v170h-682z" />
<glyph unicode="8" d="M0 102v342h170v-342h-170zM0 956v340h170v-340h-170zM170 -68v170h512v-170h-512zM170 444v170h172v-170h-172zM170 784v172h172v-172h-172zM170 1296v172h512v-172h-512zM342 614v170h170v-170h-170zM512 444v170h170v-170h-170zM512 784v172h170v-172h-170zM682 102 v342h172v-342h-172zM682 956v340h172v-340h-172z" />
<glyph unicode="9" d="M0 614v682h170v-682h-170zM170 -68v170h342v-170h-342zM170 444v170h512v682h172v-1024h-172v172h-512zM170 1296v172h512v-172h-512zM512 102v170h170v-170h-170z" />
<glyph unicode=":" d="M170 102v170h172v172h170v-172h170v-170h-170v-170h-170v170h-172zM170 784v172h172v170h170v-170h170v-172h-170v-170h-170v170h-172z" />
<glyph unicode=";" d="M170 -68h172v-172h-172v172zM170 102v170h172v172h170v-172h170v-170h-170v-170h-170v170h-172zM170 784v172h172v170h170v-170h170v-172h-170v-170h-170v170h-172z" />
<glyph unicode="&#x3c;" d="M0 614v170h170v-170h172v-170h170v-172h170v-170h172v-170h-172v170h-170v170h-170v172h-172v170h-170zM170 784v172h172v-172h-172zM342 956v170h170v-170h-170zM512 1126v170h170v-170h-170zM682 1296v172h172v-172h-172z" />
<glyph unicode="=" d="M0 444v170h854v-170h-854zM0 784v172h854v-172h-854z" />
<glyph unicode="&#x3e;" d="M0 -68v170h170v-170h-170zM0 1296v172h170v-172h172v-170h170v-170h170v-172h172v-170h-172v-170h-170v-172h-170v-170h-172v170h172v172h170v170h170v170h-170v172h-170v170h-172v170h-170z" />
<glyph unicode="?" d="M0 956v340h170v-340h-170zM170 1296v172h512v-172h-512zM342 -68v170h170v-170h-170zM342 272v342h170v-342h-170zM512 614v170h170v-170h-170zM682 784v512h172v-512h-172z" />
<glyph unicode="@" d="M0 102v1194h170v-1194h-170zM170 -68v170h512v-170h-512zM170 1296v172h512v-172h-512zM342 272v854h340v170h172v-1024h-512zM512 444h170v512h-170v-512z" />
<glyph unicode="A" d="M0 -68v682h170v512h172v-512h170v512h170v-512h172v-682h-172v512h-512v-512h-170zM342 1126v342h170v-342h-170z" />
<glyph unicode="B" d="M0 -68v1536h682v-172h172v-512h-172v-170h172v-512h-172v-170h-682zM170 102h512v512h-512v-512zM170 784h512v512h-512v-512z" />
<glyph unicode="C" d="M0 102v1194h170v-1194h-170zM170 -68v170h512v-170h-512zM170 1296v172h512v-172h-512zM682 102v170h172v-170h-172zM682 1126v170h172v-170h-172z" />
<glyph unicode="D" d="M0 -68v1536h512v-172h170v-170h172v-854h-172v-170h-170v-170h-512zM170 102h342v170h170v854h-170v170h-342v-1194z" />
<glyph unicode="E" d="M0 -68v1536h854v-172h-684v-512h512v-170h-512v-512h684v-170h-854z" />
<glyph unicode="F" d="M0 -68v1536h854v-172h-684v-512h512v-170h-512v-682h-170z" />
<glyph unicode="G" d="M0 102v1194h170v-1194h-170zM170 -68v170h512v512h-340v170h512v-852h-684zM170 1296v172h512v-172h-512zM682 1126v170h172v-170h-172z" />
<glyph unicode="H" d="M0 -68v1536h170v-684h512v684h172v-1536h-172v682h-512v-682h-170z" />
<glyph unicode="I" d="M170 -68v170h172v1194h-172v172h512v-172h-170v-1194h170v-170h-512z" />
<glyph unicode="J" d="M0 102v512h170v-512h-170zM170 -68v170h512v-170h-512zM682 102v1366h172v-1366h-172z" />
<glyph unicode="K" d="M0 -68v1536h170v-512h172v-342h170v-170h170v-172h-170v172h-170v170h-172v-682h-170zM342 956v170h170v-170h-170zM512 1126v170h170v-170h-170zM682 -68v340h172v-340h-172zM682 1296v172h172v-172h-172z" />
<glyph unicode="L" d="M0 -68v1536h170v-1366h684v-170h-854z" />
<glyph unicode="M" d="M0 -68v1536h170v-172h172v-170h-172v-1194h-170zM342 956v170h170v170h170v172h172v-1536h-172v1194h-170v-170h-170z" />
<glyph unicode="N" d="M0 -68v1536h170v-172h172v-170h170v-170h-170v170h-172v-1194h-170zM512 784v172h170v512h172v-1536h-172v852h-170z" />
<glyph unicode="O" d="M0 102v1194h170v-1194h-170zM170 -68v170h512v-170h-512zM170 1296v172h512v-172h-512zM682 102v1194h172v-1194h-172z" />
<glyph unicode="P" d="M0 -68v1536h682v-172h172v-512h-172v-170h-512v-682h-170zM170 784h512v512h-512v-512z" />
<glyph unicode="Q" d="M0 102v1194h170v-1194h-170zM170 -68v170h512v-342h-170v172h-342zM170 1296v172h512v-172h-512zM682 102v1194h172v-1194h-172zM682 -240h342v-170h-342v170z" />
<glyph unicode="R" d="M0 -68v1536h682v-172h172v-512h-172v-170h-170v-170h170v-172h-170v172h-170v170h-172v-682h-170zM170 784h512v512h-512v-512zM682 -68v340h172v-340h-172z" />
<glyph unicode="S" d="M0 102v170h170v-170h512v-170h-512v170h-170zM0 784v512h170v-512h-170zM170 614v170h512v-170h-512zM170 1296v172h512v-172h-512zM682 102v512h172v-512h-172zM682 1126v170h172v-170h-172z" />
<glyph unicode="T" d="M0 1296v172h854v-172h-342v-1364h-170v1364h-342z" />
<glyph unicode="U" d="M0 102v1366h170v-1366h-170zM170 -68v170h512v-170h-512zM682 102v1366h172v-1366h-172z" />
<glyph unicode="V" d="M0 784v684h170v-684h-170zM170 272v512h172v-512h-172zM342 -68v340h170v-340h-170zM512 272v512h170v-512h-170zM682 784v684h172v-684h-172z" />
<glyph unicode="W" d="M0 444v1024h170v-1024h-170zM170 -68v512h172v-512h-172zM342 444v1024h170v-1024h-170zM512 -68v512h170v-512h-170zM682 444v1024h172v-1024h-172z" />
<glyph unicode="X" d="M0 -68v340h170v-340h-170zM0 1126v342h170v-342h-170zM170 272v342h172v-342h-172zM170 784v342h172v-342h-172zM342 614v170h170v-170h-170zM512 272v342h170v-342h-170zM512 784v342h170v-342h-170zM682 -68v340h172v-340h-172zM682 1126v342h172v-342h-172z" />
<glyph unicode="Y" d="M0 1126v342h170v-342h-170zM170 784v342h172v-342h-172zM342 -68v852h170v-852h-170zM512 784v342h170v-342h-170zM682 1126v342h172v-342h-172z" />
<glyph unicode="Z" d="M0 -68v340h170v342h172v170h170v342h170v170h-682v172h854v-342h-172v-342h-170v-170h-170v-342h-172v-170h684v-170h-854z" />
<glyph unicode="[" d="M170 -240v1878h512v-170h-340v-1536h340v-172h-512z" />
<glyph unicode="\" d="M0 1126v342h170v-342h-170zM170 784v342h172v-342h-172zM342 444v340h170v-340h-170zM512 102v342h170v-342h-170zM682 102h172v-342h-172v342z" />
<glyph unicode="]" d="M170 -68h342v1536h-342v170h512v-1878h-512v172z" />
<glyph unicode="^" d="M0 1126v170h170v-170h-170zM170 1296v172h172v-172h-172zM342 1468v170h170v-170h-170zM512 1296v172h170v-172h-170zM682 1126v170h172v-170h-172z" />
<glyph unicode="_" d="M0 -68h854v-172h-854v172z" />
<glyph unicode="`" d="M170 1296v342h172v-342h-172zM342 956v340h170v-340h-170z" />
<glyph unicode="a" d="M0 102v342h170v170h512v170h-512v172h512v-172h172v-852h-684v170h512v342h-512v-342h-170z" />
<glyph unicode="b" d="M0 -68v1536h170v-512h512v-172h172v-682h-172v-170h-682zM170 102h512v682h-512v-682z" />
<glyph unicode="c" d="M0 102v682h170v-682h-170zM170 -68v170h512v-170h-512zM170 784v172h512v-172h-512zM682 102v170h172v-170h-172zM682 614v170h172v-170h-172z" />
<glyph unicode="d" d="M0 102v682h170v172h512v512h172v-1536h-684v170h512v682h-512v-682h-170z" />
<glyph unicode="e" d="M0 102v682h170v-170h512v170h172v-340h-684v-342h-170zM170 -68v170h512v-170h-512zM170 784v172h512v-172h-512zM682 102v170h172v-170h-172z" />
<glyph unicode="f" d="M0 614v170h342v512h170v-512h342v-170h-342v-682h-170v682h-342zM512 1296v172h342v-172h-342z" />
<glyph unicode="g" d="M0 -68h170v-172h512v-170h-512v170h-170v172zM0 272v512h170v172h684v-1196h-172v342h-512v170h512v512h-512v-512h-170z" />
<glyph unicode="h" d="M0 -68v1536h170v-684h172v-170h-172v-682h-170zM342 784v172h340v-172h-340zM682 -68v852h172v-852h-172z" />
<glyph unicode="i" d="M170 -68v170h172v682h-172v172h342v-854h170v-170h-512zM342 1468v170h170v-170h-170z" />
<glyph unicode="j" d="M0 -240h512v-170h-512v170zM342 784v172h340v-1196h-170v1024h-170zM512 1468v170h170v-170h-170z" />
<glyph unicode="k" d="M0 -68v1536h170v-854h172v-170h170v-172h-170v172h-172v-512h-170zM342 614v170h170v-170h-170zM512 102v170h170v-170h-170zM512 784v172h170v-172h-170zM682 -68v170h172v-170h-172z" />
<glyph unicode="l" d="M170 1296v172h342v-1366h170v-170h-340v1364h-172z" />
<glyph unicode="m" d="M0 -68v1024h682v-172h-170v-852h-170v852h-172v-852h-170zM682 -68v852h172v-852h-172z" />
<glyph unicode="n" d="M0 -68v1024h170v-172h172v-170h-172v-682h-170zM342 784v172h340v-172h-340zM682 -68v852h172v-852h-172z" />
<glyph unicode="o" d="M0 102v682h170v-682h-170zM170 -68v170h512v-170h-512zM170 784v172h512v-172h-512zM682 102v682h172v-682h-172z" />
<glyph unicode="p" d="M0 -410v1366h682v-172h172v-512h-172v-170h-512v-512h-170zM170 272h512v512h-512v-512z" />
<glyph unicode="q" d="M0 272v512h170v172h684v-1366h-172v512h-512v170h512v512h-512v-512h-170z" />
<glyph unicode="r" d="M0 -68v1024h170v-172h172v-170h-172v-682h-170zM342 784v172h340v-172h-340zM682 614v170h172v-170h-172z" />
<glyph unicode="s" d="M0 102v170h170v-170h512v-170h-512v170h-170zM0 614v170h170v-170h512v-170h172v-342h-172v342h-512v170h-170zM170 784v172h512v-172h-512zM682 614v170h172v-170h-172z" />
<glyph unicode="t" d="M0 784v172h170v512h172v-512h340v-172h-340v-682h340v-170h-340v170h-172v682h-170zM682 102v170h172v-170h-172z" />
<glyph unicode="u" d="M0 102v854h170v-854h-170zM170 -68v170h342v-170h-342zM512 102v170h170v684h172v-1024h-172v170h-170z" />
<glyph unicode="v" d="M0 614v342h170v-342h-170zM170 272v342h172v-342h-172zM342 -68v340h170v-340h-170zM512 272v342h170v-342h-170zM682 614v342h172v-342h-172z" />
<glyph unicode="w" d="M0 272v684h170v-684h-170zM170 -68v340h172v-340h-172zM342 272v684h170v-684h-170zM512 -68v340h170v-340h-170zM682 272v684h172v-684h-172z" />
<glyph unicode="x" d="M0 -68v170h170v-170h-170zM0 784v172h170v-172h172v-170h170v-342h170v-170h172v-170h-172v170h-170v170h-170v-170h-172v170h172v342h-172v170h-170zM512 614v170h170v-170h-170zM682 784v172h172v-172h-172z" />
<glyph unicode="y" d="M0 -68h170v-172h512v-170h-512v170h-170v172zM0 272v684h170v-684h-170zM170 102v170h512v684h172v-1196h-172v342h-512z" />
<glyph unicode="z" d="M0 -68v340h170v172h172v170h170v170h-512v172h854v-172h-172v-170h-170v-170h-170v-172h-172v-170h684v-170h-854z" />
<glyph unicode="{" d="M0 614v170h342v-170h170v-682h342v-172h-342v172h-170v682h-342zM342 784v684h170v-684h-170zM512 1468v170h342v-170h-342z" />
<glyph unicode="|" d="M342 -240v1878h170v-1878h-170z" />
<glyph unicode="}" d="M0 -68h342v-172h-342v172zM0 1468v170h342v-170h170v-684h342v-170h-342v-682h-170v682h170v170h-170v684h-342z" />
<glyph unicode="~" d="M0 1126v170h170v-170h-170zM170 1296v172h342v-172h170v-170h-340v170h-172zM682 1296v172h172v-172h-172z" />
<glyph />
<glyph unicode="&#xa0;" />
<glyph unicode="&#xa1;" d="M342 -68v1024h170v-1024h-170zM342 1296v172h170v-172h-170z" />
<glyph unicode="&#xa2;" d="M0 272v684h170v170h172v342h170v-342h170v-170h172v-172h-172v172h-170v-684h342v-170h-342v-170h-170v170h-172v170h172v684h-172v-684h-170z" />
<glyph unicode="&#xa3;" d="M0 -68v170h170v-170h-170zM0 614v170h170v512h172v-512h340v-170h-340v-342h170v-170h342v-170h-342v170h-342v512h-170zM342 1296v172h340v-172h-340zM682 1126v170h172v-170h-172z" />
<glyph unicode="&#xa4;" d="M0 102v170h170v-170h-170zM0 956v170h170v-170h512v-684h172v-170h-172v170h-512v684h-170zM342 444h170v340h-170v-340zM682 956v170h172v-170h-172z" />
<glyph unicode="&#xa5;" d="M0 272v172h342v170h-342v170h170v342h172v-342h170v342h170v-342h172v-170h-342v-170h342v-172h-342v-340h-170v340h-342zM0 1126v342h170v-342h-170zM682 1126v342h172v-342h-172z" />
<glyph unicode="&#xa6;" d="M342 -240v854h170v-854h-170zM342 784v854h170v-854h-170z" />
<glyph unicode="&#xa7;" d="M0 -68v170h170v-170h342v-172h-342v172h-170zM0 614v342h170v-342h-170zM0 1126v342h170v-342h-170zM170 444v170h172v-170h-172zM170 956v170h172v-170h-172zM170 1468v170h342v-170h-342zM342 272v172h170v-172h-170zM342 784v172h170v-172h-170zM512 -68v340h170v-340 h-170zM512 444v340h170v-340h-170zM512 1296v172h170v-172h-170z" />
<glyph unicode="&#xa8;" d="M0 1296v172h342v-172h-342zM512 1296v172h342v-172h-342z" />
<glyph unicode="&#xa9;" d="M0 -68v340h170v-170h512v170h172v-340h-854zM0 1126v342h854v-342h-172v170h-512v-170h-170zM170 272v854h512v-170h-340v-512h340v-172h-512z" />
<glyph unicode="&#xaa;" d="M0 272v172h854v-172h-854zM0 784v172h170v-172h512v172h-512v170h512v170h172v-682h-684v170h-170zM170 1296v172h512v-172h-512z" />
<glyph unicode="&#xab;" d="M0 614v170h170v-170h172v-170h170v-172h170v-170h172v-170h-172v170h-170v170h-170v172h-172v170h-170zM170 784v172h172v-172h-172zM342 614v170h170v-170h-170zM342 956v170h170v-170h-170zM512 444v170h170v-170h-170zM512 784v172h170v-172h-170zM512 1126v170h170 v-170h-170zM682 272v172h172v-172h-172zM682 956v170h172v-170h-172zM682 1296v172h172v-172h-172z" />
<glyph unicode="&#xac;" d="M0 614v170h854v-512h-172v342h-682z" />
<glyph unicode="&#xad;" d="M0 614v170h682v-170h-682z" />
<glyph unicode="&#xae;" d="M0 -68v340h170v-170h512v170h172v-340h-854zM0 1126v342h854v-342h-172v170h-512v-170h-170zM170 272v854h512v-342h-170v-170h-170v-342h-172zM342 784h170v172h-170v-172zM512 272v342h170v-342h-170z" />
<glyph unicode="&#xaf;" d="M0 1296v172h682v-172h-682z" />
<glyph unicode="&#xb0;" d="M0 1126v342h170v-342h-170zM170 956v170h342v-170h-342zM170 1468v170h342v-170h-342zM512 1126v342h170v-342h-170z" />
<glyph unicode="&#xb1;" d="M0 -68v170h854v-170h-854zM0 784v172h342v340h170v-340h342v-172h-342v-340h-170v340h-342z" />
<glyph unicode="&#xb2;" d="M0 614v170h170v172h172v-172h340v-170h-682zM0 1296v172h170v-172h-170zM170 1468v170h342v-170h-342zM342 956v170h170v-170h-170zM512 1126v342h170v-342h-170z" />
<glyph unicode="&#xb3;" d="M0 784v172h170v-172h342v-170h-342v170h-170zM0 1468v170h682v-342h-170v172h-512zM170 1126v170h342v-170h170v-342h-170v342h-342z" />
<glyph unicode="&#xb4;" d="M342 1296v172h170v-172h-170zM512 1468v170h170v-170h-170z" />
<glyph unicode="&#xb5;" d="M0 -410v1366h170v-854h342v-170h-342v-342h-170zM512 102v170h170v684h172v-1024h-172v170h-170z" />
<glyph unicode="&#xb6;" d="M0 614v682h170v172h684v-1536h-172v1364h-170v-1364h-170v512h-172v170h-170z" />
<glyph unicode="&#xb7;" d="M170 614v170h172v172h170v-172h170v-170h-170v-170h-170v170h-172z" />
<glyph unicode="&#xb8;" d="M170 -240h172v-170h-172v170zM342 -68h170v-172h-170v172zM512 -68v170h170v-170h-170z" />
<glyph unicode="&#xb9;" d="M0 1126v170h170v-170h-170zM170 1296v172h172v170h170v-1024h-170v682h-172z" />
<glyph unicode="&#xba;" d="M0 444v170h682v-170h-682zM0 956v512h170v-512h-170zM170 784v172h342v-172h-342zM170 1468v170h342v-170h-342zM512 956v512h170v-512h-170z" />
<glyph unicode="&#xbb;" d="M0 -68v170h170v-170h-170zM0 272v172h170v-172h172v-170h-172v170h-170zM0 956v170h170v-170h172v-172h170v-170h170v-170h-170v-172h-170v172h170v170h-170v-170h-172v170h172v170h-172v172h-170zM0 1296v172h170v-172h172v-170h170v-170h170v-172h172v-170h-172v170 h-170v172h-170v170h-172v170h-170z" />
<glyph unicode="&#xbc;" d="M0 1126v170h170v172h172v-854h170v170h170v-512h172v-170h-172v-170h-170v170h-342v342h172v-172h170v172h-170v170h-172v512h-170z" />
<glyph unicode="&#xbd;" d="M0 1126v170h170v172h172v-854h170v-170h-170v170h-172v512h-170zM342 -68v170h170v170h170v-170h172v-170h-512zM512 614v170h170v-170h-170zM682 272v342h172v-342h-172z" />
<glyph unicode="&#xbe;" d="M0 614v170h342v-170h170v170h170v-512h172v-170h-172v-170h-170v170h-342v342h172v-172h170v172h-170v170h-342zM0 1296v172h512v-342h-170v170h-342zM170 956v170h172v-170h170v-172h-170v172h-172z" />
<glyph unicode="&#xbf;" d="M0 102v512h170v-512h-170zM170 -68v170h512v-170h-512zM170 614v170h172v-170h-172zM342 784v342h170v-342h-170zM342 1296v172h170v-172h-170zM682 102v342h172v-342h-172z" />
<glyph unicode="&#xc0;" d="M0 -68v512h170v340h172v-340h170v340h170v-340h172v-512h-172v340h-512v-340h-170zM342 784v342h170v-342h-170zM342 1468v170h170v-170h170v-172h-170v172h-170z" />
<glyph unicode="&#xc1;" d="M0 -68v512h170v340h172v-340h170v340h170v-340h172v-512h-172v340h-512v-340h-170zM342 784v342h170v-342h-170zM342 1296v172h170v-172h-170zM512 1468v170h170v-170h-170z" />
<glyph unicode="&#xc2;" d="M0 -68v512h170v340h172v-340h170v340h170v-340h172v-512h-172v340h-512v-340h-170zM170 1296v172h172v-172h-172zM342 784v342h170v-342h-170zM342 1468v170h340v-170h-340zM682 1296v172h172v-172h-172z" />
<glyph unicode="&#xc3;" d="M0 -68v512h170v340h172v-340h170v340h170v-340h172v-512h-172v340h-512v-340h-170zM0 1296v172h170v-172h-170zM170 1468v170h342v-170h170v-172h-340v172h-172zM342 784v342h170v-342h-170zM682 1468v170h172v-170h-172z" />
<glyph unicode="&#xc4;" d="M0 -68v512h170v340h172v-340h170v340h170v-340h172v-512h-172v340h-512v-340h-170zM170 1296v342h172v-342h-172zM342 784v342h170v-342h-170zM512 1296v342h170v-342h-170z" />
<glyph unicode="&#xc5;" d="M0 -68v512h170v340h172v-340h170v340h170v-340h172v-512h-172v340h-512v-340h-170zM170 1126v342h172v-342h-172zM342 784v342h340v-170h-170v-172h-170zM342 1468v170h340v-170h-340zM682 1126v342h172v-342h-172z" />
<glyph unicode="&#xc6;" d="M0 -68v1536h854v-172h-342v-512h342v-170h-342v-512h342v-170h-512v682h-172v-682h-170zM170 784h172v512h-172v-512z" />
<glyph unicode="&#xc7;" d="M0 102v1194h170v-1194h-170zM170 -68v170h512v-170h-170v-172h-170v172h-172zM170 -240h172v-170h-172v170zM170 1296v172h512v-172h-512zM682 102v170h172v-170h-172zM682 1126v170h172v-170h-172z" />
<glyph unicode="&#xc8;" d="M0 -68v1194h854v-170h-684v-342h512v-170h-512v-342h684v-170h-854zM342 1468v170h170v-170h170v-172h-170v172h-170z" />
<glyph unicode="&#xc9;" d="M0 -68v1194h854v-170h-684v-342h512v-170h-512v-342h684v-170h-854zM342 1296v172h170v-172h-170zM512 1468v170h170v-170h-170z" />
<glyph unicode="&#xca;" d="M0 -68v1194h854v-170h-684v-342h512v-170h-512v-342h684v-170h-854zM170 1296v172h172v-172h-172zM342 1468v170h340v-170h-340zM682 1296v172h172v-172h-172z" />
<glyph unicode="&#xcb;" d="M0 -68v1194h854v-170h-684v-342h512v-170h-512v-342h684v-170h-854zM170 1296v342h172v-342h-172zM512 1296v342h170v-342h-170z" />
<glyph unicode="&#xcc;" d="M170 -68v170h172v854h-172v170h512v-170h-170v-854h170v-170h-512zM342 1468v170h170v-170h170v-172h-170v172h-170z" />
<glyph unicode="&#xcd;" d="M170 -68v170h172v854h-172v170h512v-170h-170v-854h170v-170h-512zM342 1296v172h170v-172h-170zM512 1468v170h170v-170h-170z" />
<glyph unicode="&#xce;" d="M170 -68v170h172v854h-172v170h512v-170h-170v-854h170v-170h-512zM170 1296v172h172v-172h-172zM342 1468v170h340v-170h-340zM682 1296v172h172v-172h-172z" />
<glyph unicode="&#xcf;" d="M170 -68v170h172v854h-172v170h512v-170h-170v-854h170v-170h-512zM170 1296v342h172v-342h-172zM512 1296v342h170v-342h-170z" />
<glyph unicode="&#xd0;" d="M0 -68v170h170v512h-170v170h170v512h-170v172h682v-172h172v-1194h-172v-170h-682zM342 102h340v1194h-340v-512h170v-170h-170v-512z" />
<glyph unicode="&#xd1;" d="M0 -68v1194h170v-170h172v-172h170v-170h-170v170h-172v-852h-170zM0 1296v172h170v-172h-170zM170 1468v170h342v-170h170v-172h-340v172h-172zM512 444v170h170v512h172v-1194h-172v512h-170zM682 1468v170h172v-170h-172z" />
<glyph unicode="&#xd2;" d="M0 102v854h170v-854h-170zM170 -68v170h512v-170h-512zM170 956v170h512v-170h-512zM342 1468v170h170v-170h170v-172h-170v172h-170zM682 102v854h172v-854h-172z" />
<glyph unicode="&#xd3;" d="M0 102v854h170v-854h-170zM170 -68v170h512v-170h-512zM170 956v170h512v-170h-512zM342 1296v172h170v-172h-170zM512 1468v170h170v-170h-170zM682 102v854h172v-854h-172z" />
<glyph unicode="&#xd4;" d="M0 102v854h170v-854h-170zM170 -68v170h512v-170h-512zM170 956v170h512v-170h-512zM170 1296v172h172v-172h-172zM342 1468v170h340v-170h-340zM682 102v854h172v-854h-172zM682 1296v172h172v-172h-172z" />
<glyph unicode="&#xd5;" d="M0 102v854h170v-854h-170zM0 1296v172h170v-172h-170zM170 -68v170h512v-170h-512zM170 956v170h512v-170h-512zM170 1468v170h342v-170h170v-172h-340v172h-172zM682 102v854h172v-854h-172zM682 1468v170h172v-170h-172z" />
<glyph unicode="&#xd6;" d="M0 102v854h170v-854h-170zM170 -68v170h512v-170h-512zM170 956v170h512v-170h-512zM170 1296v342h172v-342h-172zM512 1296v342h170v-342h-170zM682 102v854h172v-854h-172z" />
<glyph unicode="&#xd7;" d="M0 272v172h170v-172h-170zM0 956v170h170v-170h172v-172h170v-170h170v-170h172v-172h-172v172h-170v170h-170v-170h-172v170h172v170h-172v172h-170zM512 784v172h170v-172h-170zM682 956v170h172v-170h-172z" />
<glyph unicode="&#xd8;" d="M0 -68h170v-172h-170v172zM0 102v1194h170v-1024h172v-170h340v-170h-512v170h-170zM170 1296v172h512v-172h172v-1194h-172v1024h-170v-854h-170v854h170v170h-342zM682 1468v170h172v-170h-172z" />
<glyph unicode="&#xd9;" d="M0 102v1024h170v-1024h-170zM170 -68v170h512v-170h-512zM342 1468v170h170v-170h170v-172h-170v172h-170zM682 102v1024h172v-1024h-172z" />
<glyph unicode="&#xda;" d="M0 102v1024h170v-1024h-170zM170 -68v170h512v-170h-512zM342 1296v172h170v-172h-170zM512 1468v170h170v-170h-170zM682 102v1024h172v-1024h-172z" />
<glyph unicode="&#xdb;" d="M0 102v1024h170v-1024h-170zM170 -68v170h512v-170h-512zM170 1296v172h172v-172h-172zM342 1468v170h340v-170h-340zM682 102v1024h172v-1024h-172zM682 1296v172h172v-172h-172z" />
<glyph unicode="&#xdc;" d="M0 102v1024h170v-1024h-170zM170 -68v170h512v-170h-512zM170 1296v342h172v-342h-172zM512 1296v342h170v-342h-170zM682 102v1024h172v-1024h-172z" />
<glyph unicode="&#xdd;" d="M0 784v342h170v-342h-170zM170 444v340h172v-340h-172zM342 -68v512h170v-512h-170zM342 1296v172h170v-172h-170zM512 444v340h170v-340h-170zM512 1468v170h170v-170h-170zM682 784v342h172v-342h-172z" />
<glyph unicode="&#xde;" d="M0 -68v1706h170v-342h512v-170h172v-512h-172v-170h-512v-512h-170zM170 614h512v512h-512v-512z" />
<glyph unicode="&#xdf;" d="M0 -410v1536h170v-342h512v-170h172v-512h-172v-170h-512v-342h-170zM170 102h512v512h-512v-512zM170 1126v170h512v-170h-512zM682 784v342h172v-342h-172z" />
<glyph unicode="&#xe0;" d="M0 102v342h170v170h512v170h-512v172h512v-172h172v-852h-684v170h512v342h-512v-342h-170zM342 1468v170h170v-170h170v-172h-170v172h-170z" />
<glyph unicode="&#xe1;" d="M0 102v342h170v170h512v170h-512v172h512v-172h172v-852h-684v170h512v342h-512v-342h-170zM342 1296v172h170v-172h-170zM512 1468v170h170v-170h-170z" />
<glyph unicode="&#xe2;" d="M0 102v342h170v170h512v170h-512v172h512v-172h172v-852h-684v170h512v342h-512v-342h-170zM170 1296v172h172v-172h-172zM342 1468v170h340v-170h-340zM682 1296v172h172v-172h-172z" />
<glyph unicode="&#xe3;" d="M0 102v342h170v170h512v170h-512v172h512v-172h172v-852h-684v170h512v342h-512v-342h-170zM0 1296v172h170v-172h-170zM170 1468v170h342v-170h170v-172h-340v172h-172zM682 1468v170h172v-170h-172z" />
<glyph unicode="&#xe4;" d="M0 102v342h170v170h512v170h-512v172h512v-172h172v-852h-684v170h512v342h-512v-342h-170zM170 1296v342h172v-342h-172zM512 1296v342h170v-342h-170z" />
<glyph unicode="&#xe5;" d="M0 102v342h170v170h512v170h-512v172h512v-172h172v-852h-684v170h512v342h-512v-342h-170zM170 1296v172h172v-172h340v-170h-340v170h-172zM342 1468v170h340v-170h-340zM682 1296v172h172v-172h-172z" />
<glyph unicode="&#xe6;" d="M0 -68v682h342v170h-342v172h854v-512h-342v-342h342v-170h-854zM170 102h172v342h-172v-342zM512 614h170v170h-170v-170z" />
<glyph unicode="&#xe7;" d="M0 102v682h170v-682h-170zM170 -68v170h512v-170h-170v-172h-170v172h-172zM170 -240h172v-170h-172v170zM170 784v172h512v-172h-512zM682 102v170h172v-170h-172zM682 614v170h172v-170h-172z" />
<glyph unicode="&#xe8;" d="M0 102v682h170v-170h512v170h172v-340h-684v-342h-170zM170 -68v170h512v-170h-512zM170 784v172h512v-172h-512zM342 1468v170h170v-170h170v-172h-170v172h-170zM682 102v170h172v-170h-172z" />
<glyph unicode="&#xe9;" d="M0 102v682h170v-170h512v170h172v-340h-684v-342h-170zM170 -68v170h512v-170h-512zM170 784v172h512v-172h-512zM342 1296v172h170v-172h-170zM512 1468v170h170v-170h-170zM682 102v170h172v-170h-172z" />
<glyph unicode="&#xea;" d="M0 102v682h170v-170h512v170h172v-340h-684v-342h-170zM170 -68v170h512v-170h-512zM170 784v172h512v-172h-512zM170 1296v172h172v-172h-172zM342 1468v170h340v-170h-340zM682 102v170h172v-170h-172zM682 1296v172h172v-172h-172z" />
<glyph unicode="&#xeb;" d="M0 102v682h170v-170h512v170h172v-340h-684v-342h-170zM170 -68v170h512v-170h-512zM170 784v172h512v-172h-512zM170 1296v342h172v-342h-172zM512 1296v342h170v-342h-170zM682 102v170h172v-170h-172z" />
<glyph unicode="&#xec;" d="M170 -68v170h172v682h-172v172h342v-854h170v-170h-512zM342 1468v170h170v-170h170v-172h-170v172h-170z" />
<glyph unicode="&#xed;" d="M170 -68v170h172v682h-172v172h342v-854h170v-170h-512zM342 1296v172h170v-172h-170zM512 1468v170h170v-170h-170z" />
<glyph unicode="&#xee;" d="M170 -68v170h172v682h-172v172h342v-854h170v-170h-512zM170 1296v172h172v-172h-172zM342 1468v170h340v-170h-340zM682 1296v172h172v-172h-172z" />
<glyph unicode="&#xef;" d="M170 -68v170h172v682h-172v172h342v-854h170v-170h-512zM170 1296v342h172v-342h-172zM512 1296v342h170v-342h-170z" />
<glyph unicode="&#xf0;" d="M0 102v682h170v172h342v170h-512v170h342v172h512v-172h-342v-170h170v-342h172v-682h-172v-170h-512v170h512v682h-512v-682h-170zM170 1468v170h172v-170h-172z" />
<glyph unicode="&#xf1;" d="M0 -68v1024h170v-172h172v-170h-172v-682h-170zM0 1296v172h170v-172h-170zM170 1468v170h342v-170h170v-172h-340v172h-172zM342 784v172h340v-172h-340zM682 -68v852h172v-852h-172zM682 1468v170h172v-170h-172z" />
<glyph unicode="&#xf2;" d="M0 102v682h170v-682h-170zM170 -68v170h512v-170h-512zM170 784v172h512v-172h-512zM342 1468v170h170v-170h170v-172h-170v172h-170zM682 102v682h172v-682h-172z" />
<glyph unicode="&#xf3;" d="M0 102v682h170v-682h-170zM170 -68v170h512v-170h-512zM170 784v172h512v-172h-512zM342 1296v172h170v-172h-170zM512 1468v170h170v-170h-170zM682 102v682h172v-682h-172z" />
<glyph unicode="&#xf4;" d="M0 102v682h170v-682h-170zM170 -68v170h512v-170h-512zM170 784v172h512v-172h-512zM170 1296v172h172v-172h-172zM342 1468v170h340v-170h-340zM682 102v682h172v-682h-172zM682 1296v172h172v-172h-172z" />
<glyph unicode="&#xf5;" d="M0 102v682h170v-682h-170zM0 1296v172h170v-172h-170zM170 -68v170h512v-170h-512zM170 784v172h512v-172h-512zM170 1468v170h342v-170h170v-172h-340v172h-172zM682 102v682h172v-682h-172zM682 1468v170h172v-170h-172z" />
<glyph unicode="&#xf6;" d="M0 102v682h170v-682h-170zM170 -68v170h512v-170h-512zM170 784v172h512v-172h-512zM170 1296v342h172v-342h-172zM512 1296v342h170v-342h-170zM682 102v682h172v-682h-172z" />
<glyph unicode="&#xf7;" d="M0 614v170h854v-170h-854zM342 102v342h170v-342h-170zM342 956v340h170v-340h-170z" />
<glyph unicode="&#xf8;" d="M0 -68h170v-172h-170v172zM0 102v682h170v-512h172v-170h340v-170h-512v170h-170zM170 784v172h512v-172h172v-682h-172v512h-170v-342h-170v342h170v170h-342zM682 956v170h172v-170h-172z" />
<glyph unicode="&#xf9;" d="M0 102v854h170v-854h-170zM170 -68v170h342v-170h-342zM342 1468v170h170v-170h170v-172h-170v172h-170zM512 102v170h170v684h172v-1024h-172v170h-170z" />
<glyph unicode="&#xfa;" d="M0 102v854h170v-854h-170zM170 -68v170h342v-170h-342zM342 1296v172h170v-172h-170zM512 102v170h170v684h172v-1024h-172v170h-170zM512 1468v170h170v-170h-170z" />
<glyph unicode="&#xfb;" d="M0 102v854h170v-854h-170zM170 -68v170h342v-170h-342zM170 1296v172h172v-172h-172zM342 1468v170h340v-170h-340zM512 102v170h170v684h172v-1024h-172v170h-170zM682 1296v172h172v-172h-172z" />
<glyph unicode="&#xfc;" d="M0 102v854h170v-854h-170zM170 -68v170h342v-170h-342zM170 1296v342h172v-342h-172zM512 102v170h170v684h172v-1024h-172v170h-170zM512 1296v342h170v-342h-170z" />
<glyph unicode="&#xfd;" d="M0 -68h170v-172h512v-170h-512v170h-170v172zM0 272v684h170v-684h-170zM170 102v170h512v684h172v-1196h-172v342h-512zM342 1296v172h170v-172h-170zM512 1468v170h170v-170h-170z" />
<glyph unicode="&#xfe;" d="M0 -410v1706h170v-340h512v-172h172v-512h-172v-170h-512v-512h-170zM170 272h512v512h-512v-512z" />
<glyph unicode="&#xff;" d="M0 -68h170v-172h512v-170h-512v170h-170v172zM0 272v684h170v-684h-170zM170 102v170h512v684h172v-1196h-172v342h-512zM170 1296v342h172v-342h-172zM512 1296v342h170v-342h-170z" />
<glyph unicode="&#x2000;" horiz-adv-x="904" />
<glyph unicode="&#x2001;" horiz-adv-x="1808" />
<glyph unicode="&#x2002;" horiz-adv-x="904" />
<glyph unicode="&#x2003;" horiz-adv-x="1808" />
<glyph unicode="&#x2004;" horiz-adv-x="602" />
<glyph unicode="&#x2005;" horiz-adv-x="452" />
<glyph unicode="&#x2006;" horiz-adv-x="301" />
<glyph unicode="&#x2007;" horiz-adv-x="301" />
<glyph unicode="&#x2008;" horiz-adv-x="226" />
<glyph unicode="&#x2009;" horiz-adv-x="361" />
<glyph unicode="&#x200a;" horiz-adv-x="100" />
<glyph unicode="&#x2010;" d="M0 614v170h854v-170h-854z" />
<glyph unicode="&#x2011;" d="M0 614v170h854v-170h-854z" />
<glyph unicode="&#x2012;" d="M0 614v170h854v-170h-854z" />
<glyph unicode="&#x2013;" horiz-adv-x="1194" d="M0 614v170h1024v-170h-1024z" />
<glyph unicode="&#x2014;" horiz-adv-x="2218" d="M0 614v170h2048v-170h-2048z" />
<glyph unicode="&#x2018;" horiz-adv-x="2048" d="M1194 1296v342h172v170h340v-170h-170v-342h-342z" />
<glyph unicode="&#x2019;" horiz-adv-x="2048" d="M170 1296v172h172v340h340v-340h-170v-172h-342z" />
<glyph unicode="&#x201c;" horiz-adv-x="2048" d="M682 1296v342h172v170h340v-170h-170v-342h-342zM1194 1296v342h172v170h340v-170h-170v-342h-342z" />
<glyph unicode="&#x201d;" horiz-adv-x="2048" d="M170 1296v172h172v340h340v-340h172v340h340v-340h-170v-172h-342v172h-170v-172h-342z" />
<glyph unicode="&#x2026;" horiz-adv-x="2048" d="M170 444v340h342v-340h-342zM854 444v340h340v-340h-340zM1536 444v340h342v-340h-342z" />
<glyph unicode="&#x202f;" horiz-adv-x="361" />
<glyph unicode="&#x205f;" horiz-adv-x="452" />
<glyph unicode="&#x25fc;" horiz-adv-x="952" d="M0 0v952h952v-952h-952z" />
</font>
</defs>
</svg>
